,
Brought to you by  http://www.scenetime.com/signup.php
 
 Hottest scene tracker on the net !!!   
 
No fake torrents from scenebalance 
shame on those who comment fake before downloading my torrents

    seed back for speed


 



...................................NFO:.................................................[pre]

*******************************************************************************
             Thor.Tales.Of.Asgard.2011.480.BRRip.XviD.AC3-PRESTiGE
*******************************************************************************

-------------------------------------------------------------------------------
                              General Information
-------------------------------------------------------------------------------

TiTLE............: Thor.Tales.Of.Asgard.2011.480.BRRip.XviD.AC3-PRESTiGE

iMDB.............: http://www.imdb.com/title/tt1667903/

GENRE............:  Animation | Action | Adventure

LANGUAGE.........: English

SOURCE...........: aaf-thortoa.720p MANY THANKS!!

FiLE SiZE........: 1.99GB

SUBS.............: N/A

DURATiON.........: 1h 14mn

ENCODED by.......: akosipalos

Encoder's Note...: Thanks to twisted for helping some of the setting for this encode.. Enjoy watching :)


ViDEO iNFO:

ID                               : 0
Format                           : MPEG-4 Visual
Format profile                   : Advanced Simple@L5
Format settings, BVOP            : Yes
Format settings, QPel            : No
Format settings, GMC             : No warppoints
Format settings, Matrix          : Default (H.263)
Codec ID                         : XVID
Codec ID/Hint                    : XviD
Duration                         : 1h 14mn
Bit rate                         : 3 348 Kbps
Width                            : 1 280 pixels
Height                           : 720 pixels
Display aspect ratio             : 16:9
Frame rate                       : 23.976 fps
Color space                      : YUV
Chroma subsampling               : 4:2:0
Bit depth                        : 8 bits
Scan type                        : Progressive
Bits/(Pixel*Frame)               : 0.152
Stream size                      : 1.75 GiB (88%)
Writing library                  : XviD 1.2.1 (UTC 2008-12-04)



AUDiO iNFO:

ID                               : 1
Format                           : AC-3
Format/Info                      : Audio Coding 3
Mode extension                   : CM (complete main)
Codec ID                         : 2000
Duration                         : 1h 14mn
Bit rate mode                    : Constant
Bit rate                         : 448 Kbps
Channel(s)                       : 6 channels
Channel positions                : Front: L C R, Side: L R, LFE
Sampling rate                    : 48.0 KHz
Bit depth                        : 16 bits
Stream size                      : 240 MiB (12%)
Alignment                        : Aligned on interleaves
Interleave, duration             : 64 ms (1.53 video frames)
Interleave, preload duration     : 192 ms
Title                            : T2_Audio - 5.1 channels



-------------------------------------------------------------------------------
                                 PLOT:
-------------------------------------------------------------------------------


The young Norse god Thor embarks on a quest with his brother Loki to find and recover a legendary sword.


-------------------------------------------------------------------------------
                                 CAST:
-------------------------------------------------------------------------------


Jay Brazeau 

Chris Britton

Clancy Brown


-------------------------------------------------------------------------------
                               SCREENS:
-------------------------------------------------------------------------------


[img]http://i824.photobucket.com/albums/zz161/akosipalos/t1-1.png[/img]

[img]http://i824.photobucket.com/albums/zz161/akosipalos/t2-1.png[/img]

[img]http://i824.photobucket.com/albums/zz161/akosipalos/t3-1.png[/img]

[img]http://i824.photobucket.com/albums/zz161/akosipalos/t4-1.png[/img]


-------------------------------------------------------------------------------
                             Release Notes
-------------------------------------------------------------------------------


PRESTiGE - IS LOOKING FOR?: CAMMER'S, AUDIO SUPPLIERS, SYNCER'S, RETAIL
SUPPLIER'S, SILVER'S, SCREENER'S, LINE CAPPER'S

ENCODER'S - ANYTHING AT ALL EMAIL US AT..... prestige@hushmail.me

** ** ** ** ** ** ** ** **

PRESTiGE is the level of respect at which one is regarded by others....RIzE Above Or Sink Below...


-------------------------------------------------------------------------------
                                 GREETZ:
-------------------------------------------------------------------------------


twisted ,bigguy, CTFX, HiTM4N, smelise.paranoid53, mtyy, fifer, akosipalos, DiLLoN, imagine,"the squad" , floridajoe and To All Encoders Past And Present...


-------------------------------------------------------------------------------
Generated with Cool NFO Creator - http://fly.to/coolbeans
-------------------------------------------------------------------------------
[/pre]